<svg xmlns="http://www.w3.org/2000/svg" version="1.1" xmlns:xlink="http://www.w3.org/1999/xlink" xmlns:svgjs="http://svgjs.dev/svgjs" viewBox="0 0 2400 800"><defs><linearGradient x1="50%" y1="0%" x2="50%" y2="100%" id="sssurf-grad"><stop stop-color="hsl(208, 77%, 50%)" stop-opacity="1" offset="0%"></stop><stop stop-color="hsl(208, 74%, 93%)" stop-opacity="1" offset="100%"></stop></linearGradient></defs><g fill="url(#sssurf-grad)" transform="matrix(1,0,0,1,0,-91.04495239257812)"><path d="M 0 323.3967595102431 Q 450 597.4493556257597 600 341.7871257581714 Q 1050 510.2208371356028 1200 335.9437065543562 Q 1650 454.92897213414034 1800 302.0898692050499 Q 2250 645.5914690597355 2400 320.1875833421593 L 2400 800 L 0 800 L 0 307.1786139729065 Z" transform="matrix(1,0,0,1,0,35)" opacity="0.05"></path><path d="M 0 323.3967595102431 Q 450 597.4493556257597 600 341.7871257581714 Q 1050 510.2208371356028 1200 335.9437065543562 Q 1650 454.92897213414034 1800 302.0898692050499 Q 2250 645.5914690597355 2400 320.1875833421593 L 2400 800 L 0 800 L 0 307.1786139729065 Z" transform="matrix(1,0,0,1,0,70)" opacity="0.21"></path><path d="M 0 323.3967595102431 Q 450 597.4493556257597 600 341.7871257581714 Q 1050 510.2208371356028 1200 335.9437065543562 Q 1650 454.92897213414034 1800 302.0898692050499 Q 2250 645.5914690597355 2400 320.1875833421593 L 2400 800 L 0 800 L 0 307.1786139729065 Z" transform="matrix(1,0,0,1,0,105)" opacity="0.37"></path><path d="M 0 323.3967595102431 Q 450 597.4493556257597 600 341.7871257581714 Q 1050 510.2208371356028 1200 335.9437065543562 Q 1650 454.92897213414034 1800 302.0898692050499 Q 2250 645.5914690597355 2400 320.1875833421593 L 2400 800 L 0 800 L 0 307.1786139729065 Z" transform="matrix(1,0,0,1,0,140)" opacity="0.53"></path><path d="M 0 323.3967595102431 Q 450 597.4493556257597 600 341.7871257581714 Q 1050 510.2208371356028 1200 335.9437065543562 Q 1650 454.92897213414034 1800 302.0898692050499 Q 2250 645.5914690597355 2400 320.1875833421593 L 2400 800 L 0 800 L 0 307.1786139729065 Z" transform="matrix(1,0,0,1,0,175)" opacity="0.68"></path><path d="M 0 323.3967595102431 Q 450 597.4493556257597 600 341.7871257581714 Q 1050 510.2208371356028 1200 335.9437065543562 Q 1650 454.92897213414034 1800 302.0898692050499 Q 2250 645.5914690597355 2400 320.1875833421593 L 2400 800 L 0 800 L 0 307.1786139729065 Z" transform="matrix(1,0,0,1,0,210)" opacity="0.84"></path><path d="M 0 323.3967595102431 Q 450 597.4493556257597 600 341.7871257581714 Q 1050 510.2208371356028 1200 335.9437065543562 Q 1650 454.92897213414034 1800 302.0898692050499 Q 2250 645.5914690597355 2400 320.1875833421593 L 2400 800 L 0 800 L 0 307.1786139729065 Z" transform="matrix(1,0,0,1,0,245)" opacity="1"></path></g></svg>